<svg width="148" height="29" viewBox="0 0 148 29" fill="none" xmlns="http://www.w3.org/2000/svg">
<path d="M7.76562 27.3899C6.39578 27.3899 5.40739 27.3889 4.63086 27.3254C3.8621 27.2626 3.35788 27.1416 2.94629 26.9319C2.1563 26.5292 1.51392 25.8869 1.11133 25.0969C0.901591 24.6853 0.780596 24.1812 0.717773 23.4124C0.654329 22.6358 0.65332 21.6474 0.65332 20.2776V7.80884C0.65332 6.439 0.654329 5.4506 0.717773 4.67407C0.780596 3.90519 0.901591 3.40114 1.11133 2.9895C1.51392 2.19949 2.1563 1.55718 2.94629 1.15454C3.35788 0.944823 3.8621 0.823814 4.63086 0.760986C5.40739 0.697541 6.39578 0.696533 7.76562 0.696533H10.5469V27.3899H7.76562Z" stroke="#4563FF" stroke-width="1.30667"/>
<circle cx="5.60001" cy="22.8166" r="2.42667" fill="#4563FF"/>
<path d="M18.6665 28.0432H9.3335V0.0432129H18.6665V28.0432ZM14.0005 20.3899C12.6603 20.3899 11.5737 21.4764 11.5737 22.8167C11.5738 24.1568 12.6603 25.2434 14.0005 25.2434C15.3405 25.2432 16.4272 24.1567 16.4272 22.8167C16.4272 21.4765 15.3405 20.3901 14.0005 20.3899Z" fill="#4563FF"/>
<path d="M20.2349 0.0432129C22.9527 0.0432129 24.312 0.0435514 25.3501 0.57251C26.2632 1.03783 27.0059 1.78049 27.4712 2.6936C27.9999 3.73173 27.9995 5.09113 27.9995 7.80884V20.2776C27.9995 22.9953 27.9999 24.3547 27.4712 25.3928C27.0059 26.3059 26.2632 27.0486 25.3501 27.5139C24.312 28.0429 22.9527 28.0432 20.2349 28.0432H18.6665V0.0432129H20.2349ZM23.3335 20.3899C21.9933 20.3899 20.9067 21.4764 20.9067 22.8167C20.9068 24.1568 21.9933 25.2434 23.3335 25.2434C24.6735 25.2432 25.7602 24.1567 25.7603 22.8167C25.7603 21.4765 24.6736 20.3901 23.3335 20.3899Z" fill="#FF0029"/>
<path d="M60.7919 6.19422e-05H65.505V28.0432H60.7919V15.7891H46.7703V28.0432H42.0572V6.19422e-05H46.7703V11.3901H60.7919V6.19422e-05ZM75.8162 11.0367H83.7107C89.8378 11.0367 93.2941 14.1787 93.2941 19.5203C93.2941 24.8618 89.8378 28.0432 83.7107 28.0432H71.1031V6.19422e-05H90.9768V4.28116H75.8162V11.0367ZM75.8162 23.8799H82.8859C87.0885 23.8799 88.5417 22.2303 88.5417 19.4025C88.5417 16.6139 87.0099 14.9643 82.8859 14.9643H75.8162V23.8799ZM97.5025 28.0432V6.19422e-05H102.216V11.4687H109.796L115.177 6.19422e-05H120.047L113.763 13.6289L120.4 28.0432H115.53L109.796 15.7498H102.216V28.0432H97.5025ZM123.787 6.19422e-05H128.264V21.8376H129.207L140.793 6.19422e-05H147.47V28.0432H142.993V6.20569H142.05L130.464 28.0432H123.787V6.19422e-05Z" fill="#0E1117"/>
</svg>
