<svg width="56" height="56" viewBox="0 0 56 56" fill="none" xmlns="http://www.w3.org/2000/svg">
<path d="M50.5833 9.84542H46.2083V8.42234C46.2083 8.04492 46.0547 7.68296 45.7812 7.41608C45.5077 7.1492 45.1368 6.99927 44.75 6.99927C44.3632 6.99927 43.9923 7.1492 43.7188 7.41608C43.4453 7.68296 43.2917 8.04492 43.2917 8.42234V9.84542H28.7083V8.42234C28.7083 8.04492 28.5547 7.68296 28.2812 7.41608C28.0077 7.1492 27.6368 6.99927 27.25 6.99927C26.8632 6.99927 26.4923 7.1492 26.2188 7.41608C25.9453 7.68296 25.7917 8.04492 25.7917 8.42234V9.84542H21.4167C20.6431 9.84542 19.9013 10.1453 19.3543 10.679C18.8073 11.2128 18.5 11.9367 18.5 12.6916V41.1531C18.5 41.908 18.8073 42.6319 19.3543 43.1656C19.9013 43.6994 20.6431 43.9993 21.4167 43.9993H50.5833C51.3569 43.9993 52.0987 43.6994 52.6457 43.1656C53.1927 42.6319 53.5 41.908 53.5 41.1531V12.6916C53.5 11.9367 53.1927 11.2128 52.6457 10.679C52.0987 10.1453 51.3569 9.84542 50.5833 9.84542ZM50.5833 18.3839H21.4167V12.6916H25.7917V14.1147C25.7917 14.4921 25.9453 14.854 26.2188 15.1209C26.4923 15.3878 26.8632 15.5377 27.25 15.5377C27.6368 15.5377 28.0077 15.3878 28.2812 15.1209C28.5547 14.854 28.7083 14.4921 28.7083 14.1147V12.6916H43.2917V14.1147C43.2917 14.4921 43.4453 14.854 43.7188 15.1209C43.9923 15.3878 44.3632 15.5377 44.75 15.5377C45.1368 15.5377 45.5077 15.3878 45.7812 15.1209C46.0547 14.854 46.2083 14.4921 46.2083 14.1147V12.6916H50.5833V18.3839Z" fill="#B0CDFF"/>
<foreignObject x="-7.99425" y="13.505" width="62.9885" height="48.9885"><div xmlns="http://www.w3.org/1999/xhtml" style="backdrop-filter:blur(5.75px);clip-path:url(#bgblur_0_35735_6830_clip_path);height:100%;width:100%"></div></foreignObject><rect data-figma-bg-blur-radius="11.4943" x="3.61494" y="25.1142" width="39.7701" height="25.7701" rx="4.48276" fill="#E0E9FC" fill-opacity="0.4" stroke="url(#paint0_linear_35735_6830)" stroke-width="0.229885"/>
<path d="M37.6667 31.8743C37.8877 31.8743 38.0996 31.7865 38.2559 31.6302C38.4122 31.4739 38.5 31.2619 38.5 31.0409V30.8326C38.5 30.6116 38.4122 30.3996 38.2559 30.2433C38.0996 30.0871 37.8877 29.9993 37.6667 29.9993H37.4583C37.2373 29.9993 37.0254 30.0871 36.8691 30.2433C36.7128 30.3996 36.625 30.6116 36.625 30.8326V31.4576H35.375V30.8326C35.375 30.6116 35.2872 30.3996 35.1309 30.2433C34.9746 30.0871 34.7627 29.9993 34.5417 29.9993H34.3333C34.1123 29.9993 33.9004 30.0871 33.7441 30.2433C33.5878 30.3996 33.5 30.6116 33.5 30.8326V31.0409C33.5 31.2619 33.5878 31.4739 33.7441 31.6302C33.9004 31.7865 34.1123 31.8743 34.3333 31.8743H34.9583V33.1243H34.3333C34.1123 33.1243 33.9004 33.2121 33.7441 33.3683C33.5878 33.5246 33.5 33.7366 33.5 33.9576V34.1659C33.5 34.3869 33.5878 34.5989 33.7441 34.7552C33.9004 34.9115 34.1123 34.9993 34.3333 34.9993H34.5417C34.7627 34.9993 34.9746 34.9115 35.1309 34.7552C35.2872 34.5989 35.375 34.3869 35.375 34.1659V33.5409H36.625V34.1659C36.625 34.3869 36.7128 34.5989 36.8691 34.7552C37.0254 34.9115 37.2373 34.9993 37.4583 34.9993H37.6667C37.8877 34.9993 38.0996 34.9115 38.2559 34.7552C38.4122 34.5989 38.5 34.3869 38.5 34.1659V33.9576C38.5 33.7366 38.4122 33.5246 38.2559 33.3683C38.0996 33.2121 37.8877 33.1243 37.6667 33.1243H37.0417V31.8743H37.6667ZM37.0417 30.8326C37.0417 30.7221 37.0856 30.6161 37.1637 30.538C37.2418 30.4598 37.3478 30.4159 37.4583 30.4159H37.6667C37.7772 30.4159 37.8832 30.4598 37.9613 30.538C38.0394 30.6161 38.0833 30.7221 38.0833 30.8326V31.0409C38.0833 31.1514 38.0394 31.2574 37.9613 31.3356C37.8832 31.4137 37.7772 31.4576 37.6667 31.4576H37.0417V30.8326ZM34.3333 31.4576C34.2228 31.4576 34.1168 31.4137 34.0387 31.3356C33.9606 31.2574 33.9167 31.1514 33.9167 31.0409V30.8326C33.9167 30.7221 33.9606 30.6161 34.0387 30.538C34.1168 30.4598 34.2228 30.4159 34.3333 30.4159H34.5417C34.6522 30.4159 34.7582 30.4598 34.8363 30.538C34.9144 30.6161 34.9583 30.7221 34.9583 30.8326V31.4576H34.3333ZM34.9583 34.1659C34.9583 34.2764 34.9144 34.3824 34.8363 34.4606C34.7582 34.5387 34.6522 34.5826 34.5417 34.5826H34.3333C34.2228 34.5826 34.1168 34.5387 34.0387 34.4606C33.9606 34.3824 33.9167 34.2764 33.9167 34.1659V33.9576C33.9167 33.8471 33.9606 33.7411 34.0387 33.663C34.1168 33.5848 34.2228 33.5409 34.3333 33.5409H34.9583V34.1659ZM36.625 33.1243H35.375V31.8743H36.625V33.1243ZM37.0417 33.5409H37.6667C37.7772 33.5409 37.8832 33.5848 37.9613 33.663C38.0394 33.7411 38.0833 33.8471 38.0833 33.9576V34.1659C38.0833 34.2764 38.0394 34.3824 37.9613 34.4606C37.8832 34.5387 37.7772 34.5826 37.6667 34.5826H37.4583C37.3478 34.5826 37.2418 34.5387 37.1637 34.4606C37.0856 34.3824 37.0417 34.2764 37.0417 34.1659V33.5409Z" fill="white"/>
<defs>
<clipPath id="bgblur_0_35735_6830_clip_path" transform="translate(7.99425 -13.505)"><rect x="3.61494" y="25.1142" width="39.7701" height="25.7701" rx="4.48276"/>
</clipPath><linearGradient id="paint0_linear_35735_6830" x1="8.76854" y1="33.8372" x2="41.1399" y2="47.4002" gradientUnits="userSpaceOnUse">
<stop stop-color="white" stop-opacity="0.05"/>
<stop offset="1" stop-color="white"/>
</linearGradient>
</defs>
</svg>
