<svg width="18" height="18" viewBox="0 0 18 18" fill="none" xmlns="http://www.w3.org/2000/svg">
<path fill-rule="evenodd" clip-rule="evenodd" d="M10.875 5.25C10.875 6.28553 10.0355 7.125 9 7.125C7.96447 7.125 7.125 6.28553 7.125 5.25C7.125 4.21447 7.96447 3.375 9 3.375C10.0355 3.375 10.875 4.21447 10.875 5.25ZM12 5.25C12 6.90685 10.6569 8.25 9 8.25C7.34315 8.25 6 6.90685 6 5.25C6 3.59315 7.34315 2.25 9 2.25C10.6569 2.25 12 3.59315 12 5.25ZM4.125 15.7059C4.125 15.7206 4.12508 15.7353 4.12523 15.75H3.00018L3 15.7059C3 12.4165 5.71066 9.75 9 9.75C12.2893 9.75 15 12.4165 15 15.7059L14.9998 15.75H13.8748C13.8749 15.7353 13.875 15.7206 13.875 15.7059C13.875 13.0486 11.6788 10.875 9 10.875C6.32115 10.875 4.125 13.0486 4.125 15.7059Z" fill="#445371"/>
</svg>
