<svg width="56" height="56" viewBox="0 0 56 56" fill="none" xmlns="http://www.w3.org/2000/svg">
<circle cx="24.6359" cy="15.0244" r="9.56098" fill="#B0CDFF"/>
<path d="M6.14648 39.9498C6.14648 32.2447 12.3927 25.9985 20.0977 25.9985H29.7562C37.4613 25.9985 43.7075 32.2447 43.7075 39.9498C43.7075 42.0511 42.004 43.7546 39.9026 43.7546H9.95136C7.84998 43.7546 6.14648 42.0511 6.14648 39.9498Z" fill="#B0CDFF"/>
<foreignObject x="8.97981" y="13.7603" width="54.7721" height="51.0106"><div xmlns="http://www.w3.org/1999/xhtml" style="backdrop-filter:blur(7.12px);clip-path:url(#bgblur_0_35730_6719_clip_path);height:100%;width:100%"></div></foreignObject><path data-figma-bg-blur-radius="14.2397" d="M42.2341 28.4502C44.0444 28.4522 45.7803 29.1721 47.0603 30.4521C48.2603 31.6522 48.968 33.2526 49.0535 34.9395L49.0623 35.2783C49.0618 39.1756 46.1565 42.7759 43.0593 45.4883C39.9864 48.1793 36.8458 49.8915 36.6003 50.0215L36.5974 50.0225C36.5262 50.0607 36.4468 50.081 36.366 50.0811C36.2851 50.0811 36.2057 50.0607 36.1345 50.0225H36.1335C35.9462 49.9218 34.1031 48.916 31.8855 47.2656C29.6611 45.6101 27.091 43.3292 25.4246 40.6875C25.4228 40.6847 25.4218 40.6811 25.4216 40.6777C25.4215 40.6743 25.4229 40.67 25.4246 40.667C25.4262 40.6642 25.4286 40.6618 25.4314 40.6602C25.4344 40.6584 25.4377 40.6572 25.4412 40.6572H29.7927C30.0213 40.6573 30.2464 40.6009 30.448 40.4932C30.6497 40.3853 30.822 40.2293 30.949 40.0391L31.6697 38.9561L34.2703 42.8564C34.4388 43.1093 34.6861 43.2993 34.9734 43.3984C35.2606 43.4975 35.5725 43.5003 35.8611 43.4053L35.865 43.4033C36.1682 43.3005 36.427 43.0973 36.6003 42.8281L38.0476 40.6572H40.1218V40.6562C40.3119 40.6565 40.5001 40.6193 40.6746 40.5439C40.8494 40.4685 41.0072 40.3576 41.1375 40.2188C41.2676 40.0799 41.3673 39.9155 41.4314 39.7363C41.4955 39.557 41.5221 39.3658 41.5095 39.1758H41.5105L41.5095 39.167L41.4919 39.0352C41.4363 38.7314 41.2813 38.4531 41.0505 38.2441C40.7881 38.0066 40.4463 37.8759 40.0925 37.8789H37.3044C37.0759 37.8789 36.8507 37.9352 36.6492 38.043C36.4476 38.1507 36.2761 38.307 36.1492 38.4971L35.4265 39.5791L32.8269 35.6807C32.6583 35.4276 32.4113 35.2368 32.1238 35.1377C31.8362 35.0386 31.5239 35.0364 31.2351 35.1318L31.2302 35.1328C30.9303 35.2353 30.6737 35.4358 30.5007 35.7012L29.0496 37.8789H24.1023C24.0982 37.8789 24.0939 37.8783 24.0906 37.876C24.0872 37.8735 24.085 37.8692 24.0837 37.8652L24.0818 37.8613C23.8131 37.0265 23.6744 36.1553 23.6697 35.2783C23.6717 33.4681 24.3916 31.7322 25.6716 30.4521C26.9515 29.1722 28.6868 28.4524 30.4968 28.4502C32.7891 28.4502 34.7736 29.4335 36.0056 31.0742L36.366 31.5537L36.7253 31.0742C37.9572 29.4335 39.942 28.4504 42.2341 28.4502Z" fill="#E0E9FC" fill-opacity="0.4" stroke="url(#paint0_linear_35730_6719)" stroke-width="0.9"/>
<defs>
<clipPath id="bgblur_0_35730_6719_clip_path" transform="translate(-8.97981 -13.7603)"><path d="M42.2341 28.4502C44.0444 28.4522 45.7803 29.1721 47.0603 30.4521C48.2603 31.6522 48.968 33.2526 49.0535 34.9395L49.0623 35.2783C49.0618 39.1756 46.1565 42.7759 43.0593 45.4883C39.9864 48.1793 36.8458 49.8915 36.6003 50.0215L36.5974 50.0225C36.5262 50.0607 36.4468 50.081 36.366 50.0811C36.2851 50.0811 36.2057 50.0607 36.1345 50.0225H36.1335C35.9462 49.9218 34.1031 48.916 31.8855 47.2656C29.6611 45.6101 27.091 43.3292 25.4246 40.6875C25.4228 40.6847 25.4218 40.6811 25.4216 40.6777C25.4215 40.6743 25.4229 40.67 25.4246 40.667C25.4262 40.6642 25.4286 40.6618 25.4314 40.6602C25.4344 40.6584 25.4377 40.6572 25.4412 40.6572H29.7927C30.0213 40.6573 30.2464 40.6009 30.448 40.4932C30.6497 40.3853 30.822 40.2293 30.949 40.0391L31.6697 38.9561L34.2703 42.8564C34.4388 43.1093 34.6861 43.2993 34.9734 43.3984C35.2606 43.4975 35.5725 43.5003 35.8611 43.4053L35.865 43.4033C36.1682 43.3005 36.427 43.0973 36.6003 42.8281L38.0476 40.6572H40.1218V40.6562C40.3119 40.6565 40.5001 40.6193 40.6746 40.5439C40.8494 40.4685 41.0072 40.3576 41.1375 40.2188C41.2676 40.0799 41.3673 39.9155 41.4314 39.7363C41.4955 39.557 41.5221 39.3658 41.5095 39.1758H41.5105L41.5095 39.167L41.4919 39.0352C41.4363 38.7314 41.2813 38.4531 41.0505 38.2441C40.7881 38.0066 40.4463 37.8759 40.0925 37.8789H37.3044C37.0759 37.8789 36.8507 37.9352 36.6492 38.043C36.4476 38.1507 36.2761 38.307 36.1492 38.4971L35.4265 39.5791L32.8269 35.6807C32.6583 35.4276 32.4113 35.2368 32.1238 35.1377C31.8362 35.0386 31.5239 35.0364 31.2351 35.1318L31.2302 35.1328C30.9303 35.2353 30.6737 35.4358 30.5007 35.7012L29.0496 37.8789H24.1023C24.0982 37.8789 24.0939 37.8783 24.0906 37.876C24.0872 37.8735 24.085 37.8692 24.0837 37.8652L24.0818 37.8613C23.8131 37.0265 23.6744 36.1553 23.6697 35.2783C23.6717 33.4681 24.3916 31.7322 25.6716 30.4521C26.9515 29.1722 28.6868 28.4524 30.4968 28.4502C32.7891 28.4502 34.7736 29.4335 36.0056 31.0742L36.366 31.5537L36.7253 31.0742C37.9572 29.4335 39.942 28.4504 42.2341 28.4502Z"/>
</clipPath><linearGradient id="paint0_linear_35730_6719" x1="26.6826" y1="35.6588" x2="49.4015" y2="42.879" gradientUnits="userSpaceOnUse">
<stop stop-color="white" stop-opacity="0.05"/>
<stop offset="1" stop-color="white"/>
</linearGradient>
</defs>
</svg>
