<svg width="89" height="16" viewBox="0 0 89 16" fill="none" xmlns="http://www.w3.org/2000/svg">
<g clip-path="url(#clip0_22_8832)">
<path d="M38.9525 0.0439453V16H36.145V9.02832H27.7918V16.0014H24.9844V0.0439453H27.7918V6.52482H36.145V0.0439453H38.9525Z" fill="black"/>
<path d="M50.2293 6.32396C53.8794 6.32396 55.9383 8.11179 55.9383 11.1514C55.9383 14.1909 53.8794 16.0014 50.2293 16.0014H42.7188V0.0439453H54.5574V2.4796H45.5262V6.32396H50.2293ZM49.7381 13.6309C52.2411 13.6309 53.1073 12.6918 53.1073 11.0835C53.1073 9.49656 52.1955 8.55874 49.7381 8.55874H45.5262V13.6322H49.7381V13.6309Z" fill="black"/>
<path d="M58.7031 0.0439453H61.5106V6.57005H66.0269L69.2328 0.0439453H72.1343L68.3902 7.79918L72.3447 16.0014H69.4431L66.0269 9.0057H61.5106V16H58.7031V0.0439453Z" fill="black"/>
<path d="M77.5583 0.0439453V12.4696H78.1201L85.0218 0.0439453H88.9998V16.0001H86.3321V3.57438H85.7704L78.8687 16.0001H74.8906V0.0439453H77.5583Z" fill="black"/>
<path d="M3.04321 12.2069C3.6534 12.2069 4.15014 12.6778 4.15014 13.2578C4.15014 13.8378 3.6534 14.3087 3.04321 14.3087C2.43301 14.3087 1.93628 13.8378 1.93628 13.2578C1.93628 12.6791 2.43301 12.2069 3.04321 12.2069ZM3.04321 11.6748C2.12584 11.6748 1.38281 12.3838 1.38281 13.2578C1.38281 14.1317 2.12584 14.8408 3.04321 14.8408C3.96058 14.8408 4.70361 14.1317 4.70361 13.2578C4.70361 12.3838 3.96058 11.6748 3.04321 11.6748Z" fill="#4563FF"/>
<path d="M5.67188 15.9628H11.2065V0H5.67188V15.9628ZM8.4392 14.8986C7.52183 14.8986 6.77881 14.1842 6.77881 13.3023C6.77881 12.4204 7.52183 11.706 8.4392 11.706C9.35657 11.706 10.0996 12.4204 10.0996 13.3023C10.0996 14.1842 9.35657 14.8986 8.4392 14.8986Z" fill="#4563FF"/>
<path d="M15.358 0H11.207V15.9628H15.358C16.1218 15.9628 16.7417 15.3668 16.7417 14.6325V1.33023C16.7417 0.595943 16.1218 0 15.358 0ZM13.9744 14.8986C13.057 14.8986 12.314 14.1842 12.314 13.3023C12.314 12.4204 13.057 11.706 13.9744 11.706C14.8917 11.706 15.6348 12.4204 15.6348 13.3023C15.6348 14.1842 14.8917 14.8986 13.9744 14.8986Z" fill="#FF0029"/>
<path d="M5.94975 0.532092V15.4307H1.38366C0.925671 15.4307 0.553465 15.0728 0.553465 14.6325V1.33023C0.553465 0.889924 0.925671 0.532092 1.38366 0.532092H5.94975ZM6.50322 0H1.38366C0.619881 0 0 0.595943 0 1.33023V14.6325C0 15.3668 0.619881 15.9628 1.38366 15.9628H6.50322V0Z" fill="#4563FF"/>
</g>
<defs>
<clipPath id="clip0_22_8832">
<rect width="89" height="16" fill="white"/>
</clipPath>
</defs>
</svg>
