<svg width="56" height="56" viewBox="0 0 56 56" fill="none" xmlns="http://www.w3.org/2000/svg">
<path d="M50.7577 30.125C50.7577 40.7632 43.2852 46.0823 34.4036 49.1674C33.9385 49.3245 33.4333 49.317 32.9731 49.1461C24.0702 46.0823 16.5977 40.7632 16.5977 30.125V15.2315C16.5977 14.6672 16.8226 14.126 17.223 13.727C17.6234 13.328 18.1664 13.1039 18.7327 13.1039C23.0027 13.1039 28.3402 10.5507 32.0551 7.31667C32.5074 6.93156 33.0827 6.71997 33.6777 6.71997C34.2726 6.71997 34.8479 6.93156 35.3003 7.31667C39.0365 10.572 44.3527 13.1039 48.6227 13.1039C49.1889 13.1039 49.7319 13.328 50.1323 13.727C50.5327 14.126 50.7577 14.6672 50.7577 15.2315V30.125Z" fill="#B0CDFF" stroke="#B0CDFF" stroke-width="2.67" stroke-linecap="round" stroke-linejoin="round"/>
<mask id="path-2-inside-1_35726_6613" fill="white">
<path d="M10.6402 21.5531H14.2675L14.0173 26.3061L18.5202 24.6488L19.6459 28.0885L15.018 29.3706L18.0199 33.0917L15.0805 35.2494L12.4226 31.2468L9.79588 35.2494L6.88777 33.0917L9.85842 29.3706L5.23046 28.0885L6.35618 24.6488L10.8278 26.3061L10.6402 21.5531ZM25.6119 21.5531H29.2392L28.9891 26.3061L33.4919 24.6488L34.6177 28.0885L29.9897 29.3706L32.9916 33.0917L30.0522 35.2494L27.3943 31.2468L24.7676 35.2494L21.8595 33.0917L24.8302 29.3706L20.2022 28.0885L21.3279 24.6488L25.7995 26.3061L25.6119 21.5531ZM40.5836 21.5531H44.211L43.9608 26.3061L48.4637 24.6488L49.5894 28.0885L44.9614 29.3706L47.9634 33.0917L45.024 35.2494L42.366 31.2468L39.7393 35.2494L36.8312 33.0917L39.8019 29.3706L35.1739 28.0885L36.2996 24.6488L40.7713 26.3061L40.5836 21.5531Z"/>
</mask>
<g filter="url(#filter0_i_35726_6613)">
<path d="M10.6402 21.5531H14.2675L14.0173 26.3061L18.5202 24.6488L19.6459 28.0885L15.018 29.3706L18.0199 33.0917L15.0805 35.2494L12.4226 31.2468L9.79588 35.2494L6.88777 33.0917L9.85842 29.3706L5.23046 28.0885L6.35618 24.6488L10.8278 26.3061L10.6402 21.5531ZM25.6119 21.5531H29.2392L28.9891 26.3061L33.4919 24.6488L34.6177 28.0885L29.9897 29.3706L32.9916 33.0917L30.0522 35.2494L27.3943 31.2468L24.7676 35.2494L21.8595 33.0917L24.8302 29.3706L20.2022 28.0885L21.3279 24.6488L25.7995 26.3061L25.6119 21.5531ZM40.5836 21.5531H44.211L43.9608 26.3061L48.4637 24.6488L49.5894 28.0885L44.9614 29.3706L47.9634 33.0917L45.024 35.2494L42.366 31.2468L39.7393 35.2494L36.8312 33.0917L39.8019 29.3706L35.1739 28.0885L36.2996 24.6488L40.7713 26.3061L40.5836 21.5531Z" fill="#E0E9FC" fill-opacity="0.4"/>
</g>
<path d="M10.6402 21.5531V21.0829H10.151L10.1703 21.5716L10.6402 21.5531ZM14.2675 21.5531L14.7371 21.5778L14.7631 21.0829H14.2675V21.5531ZM14.0173 26.3061L13.5478 26.2814L13.5103 26.9938L14.1797 26.7474L14.0173 26.3061ZM18.5202 24.6488L18.9671 24.5026L18.8154 24.0391L18.3578 24.2076L18.5202 24.6488ZM19.6459 28.0885L19.7715 28.5417L20.246 28.4102L20.0928 27.9423L19.6459 28.0885ZM15.018 29.3706L14.8924 28.9174L14.2024 29.1086L14.652 29.6658L15.018 29.3706ZM18.0199 33.0917L18.2981 33.4708L18.6949 33.1796L18.3859 32.7965L18.0199 33.0917ZM15.0805 35.2494L14.6888 35.5095L14.9614 35.9201L15.3588 35.6284L15.0805 35.2494ZM12.4226 31.2468L12.8143 30.9867L12.4202 30.3933L12.0294 30.9888L12.4226 31.2468ZM9.79588 35.2494L9.5157 35.627L9.91572 35.9238L10.189 35.5074L9.79588 35.2494ZM6.88777 33.0917L6.52029 32.7984L6.21635 33.1791L6.60759 33.4694L6.88777 33.0917ZM9.85842 29.3706L10.2259 29.664L10.6701 29.1075L9.98396 28.9174L9.85842 29.3706ZM5.23046 28.0885L4.78357 27.9423L4.63042 28.4102L5.10493 28.5417L5.23046 28.0885ZM6.35618 24.6488L6.51959 24.2079L6.06131 24.0381L5.90929 24.5026L6.35618 24.6488ZM10.8278 26.3061L10.6644 26.7471L11.3255 26.9921L11.2976 26.2876L10.8278 26.3061ZM10.6402 21.5531V22.0233H14.2675V21.5531V21.0829H10.6402V21.5531ZM14.2675 21.5531L13.7979 21.5284L13.5478 26.2814L14.0173 26.3061L14.4869 26.3309L14.7371 21.5778L14.2675 21.5531ZM14.0173 26.3061L14.1797 26.7474L18.6826 25.0901L18.5202 24.6488L18.3578 24.2076L13.8549 25.8649L14.0173 26.3061ZM18.5202 24.6488L18.0733 24.7951L19.199 28.2348L19.6459 28.0885L20.0928 27.9423L18.9671 24.5026L18.5202 24.6488ZM19.6459 28.0885L19.5204 27.6354L14.8924 28.9174L15.018 29.3706L15.1435 29.8238L19.7715 28.5417L19.6459 28.0885ZM15.018 29.3706L14.652 29.6658L17.6539 33.387L18.0199 33.0917L18.3859 32.7965L15.3839 29.0754L15.018 29.3706ZM18.0199 33.0917L17.7416 32.7127L14.8023 34.8703L15.0805 35.2494L15.3588 35.6284L18.2981 33.4708L18.0199 33.0917ZM15.0805 35.2494L15.4722 34.9892L12.8143 30.9867L12.4226 31.2468L12.0308 31.5069L14.6888 35.5095L15.0805 35.2494ZM12.4226 31.2468L12.0294 30.9888L9.40275 34.9914L9.79588 35.2494L10.189 35.5074L12.8157 31.5048L12.4226 31.2468ZM9.79588 35.2494L10.0761 34.8717L7.16795 32.7141L6.88777 33.0917L6.60759 33.4694L9.5157 35.627L9.79588 35.2494ZM6.88777 33.0917L7.25525 33.3851L10.2259 29.664L9.85842 29.3706L9.49094 29.0772L6.52029 32.7984L6.88777 33.0917ZM9.85842 29.3706L9.98396 28.9174L5.356 27.6354L5.23046 28.0885L5.10493 28.5417L9.73289 29.8238L9.85842 29.3706ZM5.23046 28.0885L5.67736 28.2348L6.80308 24.7951L6.35618 24.6488L5.90929 24.5026L4.78357 27.9423L5.23046 28.0885ZM6.35618 24.6488L6.19277 25.0897L10.6644 26.7471L10.8278 26.3061L10.9912 25.8652L6.51959 24.2079L6.35618 24.6488ZM10.8278 26.3061L11.2976 26.2876L11.11 21.5346L10.6402 21.5531L10.1703 21.5716L10.3579 26.3247L10.8278 26.3061ZM25.6119 21.5531V21.0829H25.1228L25.1421 21.5716L25.6119 21.5531ZM29.2392 21.5531L29.7088 21.5778L29.7348 21.0829H29.2392V21.5531ZM28.9891 26.3061L28.5195 26.2814L28.482 26.9938L29.1515 26.7474L28.9891 26.3061ZM33.4919 24.6488L33.9388 24.5026L33.7872 24.0391L33.3295 24.2076L33.4919 24.6488ZM34.6177 28.0885L34.7432 28.5417L35.2177 28.4102L35.0646 27.9423L34.6177 28.0885ZM29.9897 29.3706L29.8642 28.9174L29.1742 29.1086L29.6237 29.6658L29.9897 29.3706ZM32.9916 33.0917L33.2699 33.4708L33.6666 33.1796L33.3576 32.7965L32.9916 33.0917ZM30.0522 35.2494L29.6605 35.5095L29.9332 35.9201L30.3305 35.6284L30.0522 35.2494ZM27.3943 31.2468L27.786 30.9867L27.392 30.3933L27.0012 30.9888L27.3943 31.2468ZM24.7676 35.2494L24.4874 35.627L24.8875 35.9238L25.1607 35.5074L24.7676 35.2494ZM21.8595 33.0917L21.492 32.7984L21.1881 33.1791L21.5793 33.4694L21.8595 33.0917ZM24.8302 29.3706L25.1976 29.664L25.6418 29.1075L24.9557 28.9174L24.8302 29.3706ZM20.2022 28.0885L19.7553 27.9423L19.6021 28.4102L20.0767 28.5417L20.2022 28.0885ZM21.3279 24.6488L21.4913 24.2079L21.033 24.0381L20.881 24.5026L21.3279 24.6488ZM25.7995 26.3061L25.6361 26.7471L26.2972 26.9921L26.2694 26.2876L25.7995 26.3061ZM25.6119 21.5531V22.0233H29.2392V21.5531V21.0829H25.6119V21.5531ZM29.2392 21.5531L28.7697 21.5284L28.5195 26.2814L28.9891 26.3061L29.4586 26.3309L29.7088 21.5778L29.2392 21.5531ZM28.9891 26.3061L29.1515 26.7474L33.6544 25.0901L33.4919 24.6488L33.3295 24.2076L28.8266 25.8649L28.9891 26.3061ZM33.4919 24.6488L33.0451 24.7951L34.1708 28.2348L34.6177 28.0885L35.0646 27.9423L33.9388 24.5026L33.4919 24.6488ZM34.6177 28.0885L34.4921 27.6354L29.8642 28.9174L29.9897 29.3706L30.1152 29.8238L34.7432 28.5417L34.6177 28.0885ZM29.9897 29.3706L29.6237 29.6658L32.6256 33.387L32.9916 33.0917L33.3576 32.7965L30.3557 29.0754L29.9897 29.3706ZM32.9916 33.0917L32.7134 32.7127L29.774 34.8703L30.0522 35.2494L30.3305 35.6284L33.2699 33.4708L32.9916 33.0917ZM30.0522 35.2494L30.444 34.9892L27.786 30.9867L27.3943 31.2468L27.0026 31.5069L29.6605 35.5095L30.0522 35.2494ZM27.3943 31.2468L27.0012 30.9888L24.3745 34.9914L24.7676 35.2494L25.1607 35.5074L27.7874 31.5048L27.3943 31.2468ZM24.7676 35.2494L25.0478 34.8717L22.1397 32.7141L21.8595 33.0917L21.5793 33.4694L24.4874 35.627L24.7676 35.2494ZM21.8595 33.0917L22.227 33.3851L25.1976 29.664L24.8302 29.3706L24.4627 29.0772L21.492 32.7984L21.8595 33.0917ZM24.8302 29.3706L24.9557 28.9174L20.3277 27.6354L20.2022 28.0885L20.0767 28.5417L24.7046 29.8238L24.8302 29.3706ZM20.2022 28.0885L20.6491 28.2348L21.7748 24.7951L21.3279 24.6488L20.881 24.5026L19.7553 27.9423L20.2022 28.0885ZM21.3279 24.6488L21.1645 25.0897L25.6361 26.7471L25.7995 26.3061L25.9629 25.8652L21.4913 24.2079L21.3279 24.6488ZM25.7995 26.3061L26.2694 26.2876L26.0818 21.5346L25.6119 21.5531L25.1421 21.5716L25.3297 26.3247L25.7995 26.3061ZM40.5836 21.5531V21.0829H40.0945L40.1138 21.5716L40.5836 21.5531ZM44.211 21.5531L44.6805 21.5778L44.7066 21.0829H44.211V21.5531ZM43.9608 26.3061L43.4912 26.2814L43.4537 26.9938L44.1232 26.7474L43.9608 26.3061ZM48.4637 24.6488L48.9106 24.5026L48.7589 24.0391L48.3013 24.2076L48.4637 24.6488ZM49.5894 28.0885L49.7149 28.5417L50.1894 28.4102L50.0363 27.9423L49.5894 28.0885ZM44.9614 29.3706L44.8359 28.9174L44.1459 29.1086L44.5955 29.6658L44.9614 29.3706ZM47.9634 33.0917L48.2416 33.4708L48.6384 33.1796L48.3293 32.7965L47.9634 33.0917ZM45.024 35.2494L44.6323 35.5095L44.9049 35.9201L45.3022 35.6284L45.024 35.2494ZM42.366 31.2468L42.7577 30.9867L42.3637 30.3933L41.9729 30.9888L42.366 31.2468ZM39.7393 35.2494L39.4592 35.627L39.8592 35.9238L40.1325 35.5074L39.7393 35.2494ZM36.8312 33.0917L36.4638 32.7984L36.1598 33.1791L36.5511 33.4694L36.8312 33.0917ZM39.8019 29.3706L40.1694 29.664L40.6136 29.1075L39.9274 28.9174L39.8019 29.3706ZM35.1739 28.0885L34.727 27.9423L34.5739 28.4102L35.0484 28.5417L35.1739 28.0885ZM36.2996 24.6488L36.4631 24.2079L36.0048 24.0381L35.8528 24.5026L36.2996 24.6488ZM40.7713 26.3061L40.6078 26.7471L41.2689 26.9921L41.2411 26.2876L40.7713 26.3061ZM40.5836 21.5531V22.0233H44.211V21.5531V21.0829H40.5836V21.5531ZM44.211 21.5531L43.7414 21.5284L43.4912 26.2814L43.9608 26.3061L44.4304 26.3309L44.6805 21.5778L44.211 21.5531ZM43.9608 26.3061L44.1232 26.7474L48.6261 25.0901L48.4637 24.6488L48.3013 24.2076L43.7984 25.8649L43.9608 26.3061ZM48.4637 24.6488L48.0168 24.7951L49.1425 28.2348L49.5894 28.0885L50.0363 27.9423L48.9106 24.5026L48.4637 24.6488ZM49.5894 28.0885L49.4639 27.6354L44.8359 28.9174L44.9614 29.3706L45.087 29.8238L49.7149 28.5417L49.5894 28.0885ZM44.9614 29.3706L44.5955 29.6658L47.5974 33.387L47.9634 33.0917L48.3293 32.7965L45.3274 29.0754L44.9614 29.3706ZM47.9634 33.0917L47.6851 32.7127L44.7457 34.8703L45.024 35.2494L45.3022 35.6284L48.2416 33.4708L47.9634 33.0917ZM45.024 35.2494L45.4157 34.9892L42.7577 30.9867L42.366 31.2468L41.9743 31.5069L44.6323 35.5095L45.024 35.2494ZM42.366 31.2468L41.9729 30.9888L39.3462 34.9914L39.7393 35.2494L40.1325 35.5074L42.7592 31.5048L42.366 31.2468ZM39.7393 35.2494L40.0195 34.8717L37.1114 32.7141L36.8312 33.0917L36.5511 33.4694L39.4592 35.627L39.7393 35.2494ZM36.8312 33.0917L37.1987 33.3851L40.1694 29.664L39.8019 29.3706L39.4344 29.0772L36.4638 32.7984L36.8312 33.0917ZM39.8019 29.3706L39.9274 28.9174L35.2995 27.6354L35.1739 28.0885L35.0484 28.5417L39.6764 29.8238L39.8019 29.3706ZM35.1739 28.0885L35.6208 28.2348L36.7465 24.7951L36.2996 24.6488L35.8528 24.5026L34.727 27.9423L35.1739 28.0885ZM36.2996 24.6488L36.1362 25.0897L40.6078 26.7471L40.7713 26.3061L40.9347 25.8652L36.4631 24.2079L36.2996 24.6488ZM40.7713 26.3061L41.2411 26.2876L41.0535 21.5346L40.5836 21.5531L40.1138 21.5716L40.3014 26.3247L40.7713 26.3061Z" fill="url(#paint0_linear_35726_6613)" mask="url(#path-2-inside-1_35726_6613)"/>
<defs>
<filter id="filter0_i_35726_6613" x="5.23047" y="21.5532" width="45.2421" height="14.0846" filterUnits="userSpaceOnUse" color-interpolation-filters="sRGB">
<feFlood flood-opacity="0" result="BackgroundImageFix"/>
<feBlend mode="normal" in="SourceGraphic" in2="BackgroundImageFix" result="shape"/>
<feColorMatrix in="SourceAlpha" type="matrix" values="0 0 0 0 0 0 0 0 0 0 0 0 0 0 0 0 0 0 127 0" result="hardAlpha"/>
<feOffset dx="0.883187" dy="0.388602"/>
<feGaussianBlur stdDeviation="0.794868"/>
<feComposite in2="hardAlpha" operator="arithmetic" k2="-1" k3="1"/>
<feColorMatrix type="matrix" values="0 0 0 0 1 0 0 0 0 1 0 0 0 0 1 0 0 0 1 0"/>
<feBlend mode="normal" in2="shape" result="effect1_innerShadow_35726_6613"/>
</filter>
<linearGradient id="paint0_linear_35726_6613" x1="17.3484" y1="32.7075" x2="46.8836" y2="20.8299" gradientUnits="userSpaceOnUse">
<stop stop-color="white" stop-opacity="0.09"/>
<stop offset="1" stop-color="white"/>
</linearGradient>
</defs>
</svg>
