<svg width="67" height="56" viewBox="0 0 67 56" fill="none" xmlns="http://www.w3.org/2000/svg">
<ellipse cx="39.0833" cy="28" rx="25.125" ry="25.2" fill="#B0CDFF"/>
<foreignObject x="-21.5746" y="-21.5663" width="95.6165" height="99.1326"><div xmlns="http://www.w3.org/1999/xhtml" style="backdrop-filter:blur(12.18px);clip-path:url(#bgblur_0_35735_6816_clip_path);height:100%;width:100%"></div></foreignObject><g data-figma-bg-blur-radius="24.3663">
<mask id="path-2-inside-1_35735_6816" fill="white">
<path d="M27.9167 2.80001C23.5064 2.80001 19.1737 3.96441 15.3542 6.17617C11.5348 8.38793 8.36304 11.5691 6.15786 15.4C3.95268 19.2309 2.79175 23.5765 2.79175 28C2.79175 32.4235 3.95268 36.7691 6.15786 40.6C8.36304 44.4309 11.5348 47.6121 15.3542 49.8239C19.1737 52.0356 23.5064 53.2 27.9167 53.2C32.3271 53.2 36.6598 52.0356 40.4793 49.8239C44.2987 47.6121 47.4705 44.4309 49.6756 40.6L27.9167 28V2.80001Z"/>
</mask>
<path d="M27.9167 2.80001C23.5064 2.80001 19.1737 3.96441 15.3542 6.17617C11.5348 8.38793 8.36304 11.5691 6.15786 15.4C3.95268 19.2309 2.79175 23.5765 2.79175 28C2.79175 32.4235 3.95268 36.7691 6.15786 40.6C8.36304 44.4309 11.5348 47.6121 15.3542 49.8239C19.1737 52.0356 23.5064 53.2 27.9167 53.2C32.3271 53.2 36.6598 52.0356 40.4793 49.8239C44.2987 47.6121 47.4705 44.4309 49.6756 40.6L27.9167 28V2.80001Z" fill="#E0E9FC" fill-opacity="0.4" stroke="url(#paint0_linear_35735_6816)" stroke-width="2.59216" mask="url(#path-2-inside-1_35735_6816)"/>
</g>
<defs>
<clipPath id="bgblur_0_35735_6816_clip_path" transform="translate(21.5746 21.5663)"><path d="M27.9167 2.80001C23.5064 2.80001 19.1737 3.96441 15.3542 6.17617C11.5348 8.38793 8.36304 11.5691 6.15786 15.4C3.95268 19.2309 2.79175 23.5765 2.79175 28C2.79175 32.4235 3.95268 36.7691 6.15786 40.6C8.36304 44.4309 11.5348 47.6121 15.3542 49.8239C19.1737 52.0356 23.5064 53.2 27.9167 53.2C32.3271 53.2 36.6598 52.0356 40.4793 49.8239C44.2987 47.6121 47.4705 44.4309 49.6756 40.6L27.9167 28V2.80001Z"/>
</clipPath><linearGradient id="paint0_linear_35735_6816" x1="40.8423" y1="45.36" x2="8.45614" y2="12.2964" gradientUnits="userSpaceOnUse">
<stop stop-color="white"/>
<stop offset="1" stop-color="white" stop-opacity="0"/>
</linearGradient>
</defs>
</svg>
