<svg width="56" height="56" viewBox="0 0 56 56" fill="none" xmlns="http://www.w3.org/2000/svg">
<circle cx="26.0019" cy="18.4389" r="9.56098" fill="#B0CDFF"/>
<path d="M7.51221 43.3643C7.51221 35.6593 13.7584 29.4131 21.4634 29.4131H31.122C38.827 29.4131 45.0732 35.6593 45.0732 43.3643C45.0732 45.4657 43.3697 47.1692 41.2683 47.1692H11.3171C9.2157 47.1692 7.51221 45.4657 7.51221 43.3643Z" fill="#B0CDFF"/>
<foreignObject x="11.7115" y="9.66268" width="53.1192" height="53.1192"><div xmlns="http://www.w3.org/1999/xhtml" style="backdrop-filter:blur(7.12px);clip-path:url(#bgblur_0_35726_6618_clip_path);height:100%;width:100%"></div></foreignObject><path data-figma-bg-blur-radius="14.2397" d="M36.1494 24.2051C38.754 24.147 41.2807 25.0948 43.2041 26.8516C45.1275 28.6084 46.2999 31.0391 46.4766 33.6377C46.6531 36.2362 45.8203 38.8029 44.1523 40.8037L43.9775 41.0137L44.1709 41.208L50.1016 47.1357C50.1618 47.1959 50.2096 47.2681 50.2422 47.3467C50.2746 47.425 50.291 47.509 50.291 47.5938C50.291 47.6787 50.2747 47.7633 50.2422 47.8418C50.2097 47.9202 50.1616 47.9917 50.1016 48.0518L50.1006 48.0527C50.0405 48.1128 49.9691 48.1608 49.8906 48.1934C49.8121 48.2259 49.7276 48.2422 49.6426 48.2422C49.5575 48.2422 49.4731 48.2259 49.3945 48.1934C49.316 48.1608 49.2447 48.1128 49.1846 48.0527L43.2549 42.123L43.0605 41.9297L42.8506 42.1045C40.8478 43.7702 38.2798 44.5996 35.6807 44.4209C33.0814 44.242 30.6512 43.068 28.8955 41.1436C27.1399 39.2192 26.1935 36.6927 26.2539 34.0889C26.3144 31.4851 27.3767 29.005 29.2197 27.1641C31.0628 25.3232 33.5447 24.2632 36.1494 24.2051ZM38.0977 25.6738C36.3852 25.3334 34.6102 25.5079 32.9971 26.1758C31.3838 26.8438 30.0043 27.9752 29.0342 29.4268C28.064 30.8783 27.5469 32.5853 27.5469 34.3311L27.5576 34.7686C27.6681 36.9493 28.584 39.0181 30.1357 40.5693C31.7908 42.2238 34.0345 43.1546 36.375 43.1572H36.376C38.1219 43.1571 39.8286 42.6396 41.2803 41.6699C42.7321 40.7002 43.8639 39.3216 44.5322 37.709C45.2005 36.0961 45.3758 34.3206 45.0352 32.6084C44.6944 30.8963 43.8528 29.3242 42.6182 28.0898C41.3834 26.8554 39.8103 26.0144 38.0977 25.6738ZM36.376 27.999C38.0556 27.9992 39.6668 28.6662 40.8545 29.8535C42.0422 31.0409 42.709 32.6519 42.709 34.3311C42.7089 35.5832 42.3375 36.8075 41.6416 37.8486C40.9457 38.8898 39.9561 39.7015 38.7988 40.1807C37.6416 40.6598 36.3681 40.7853 35.1396 40.541C33.9111 40.2967 32.7822 39.6931 31.8965 38.8076C31.011 37.9222 30.4075 36.7943 30.1631 35.5664C29.9187 34.3383 30.0451 33.0651 30.5244 31.9082C31.0037 30.7513 31.815 29.7621 32.8564 29.0664C33.898 28.3707 35.1233 27.999 36.376 27.999Z" fill="#E0E9FC" fill-opacity="0.4" stroke="url(#paint0_linear_35726_6618)" stroke-width="0.6"/>
<defs>
<clipPath id="bgblur_0_35726_6618_clip_path" transform="translate(-11.7115 -9.66268)"><path d="M36.1494 24.2051C38.754 24.147 41.2807 25.0948 43.2041 26.8516C45.1275 28.6084 46.2999 31.0391 46.4766 33.6377C46.6531 36.2362 45.8203 38.8029 44.1523 40.8037L43.9775 41.0137L44.1709 41.208L50.1016 47.1357C50.1618 47.1959 50.2096 47.2681 50.2422 47.3467C50.2746 47.425 50.291 47.509 50.291 47.5938C50.291 47.6787 50.2747 47.7633 50.2422 47.8418C50.2097 47.9202 50.1616 47.9917 50.1016 48.0518L50.1006 48.0527C50.0405 48.1128 49.9691 48.1608 49.8906 48.1934C49.8121 48.2259 49.7276 48.2422 49.6426 48.2422C49.5575 48.2422 49.4731 48.2259 49.3945 48.1934C49.316 48.1608 49.2447 48.1128 49.1846 48.0527L43.2549 42.123L43.0605 41.9297L42.8506 42.1045C40.8478 43.7702 38.2798 44.5996 35.6807 44.4209C33.0814 44.242 30.6512 43.068 28.8955 41.1436C27.1399 39.2192 26.1935 36.6927 26.2539 34.0889C26.3144 31.4851 27.3767 29.005 29.2197 27.1641C31.0628 25.3232 33.5447 24.2632 36.1494 24.2051ZM38.0977 25.6738C36.3852 25.3334 34.6102 25.5079 32.9971 26.1758C31.3838 26.8438 30.0043 27.9752 29.0342 29.4268C28.064 30.8783 27.5469 32.5853 27.5469 34.3311L27.5576 34.7686C27.6681 36.9493 28.584 39.0181 30.1357 40.5693C31.7908 42.2238 34.0345 43.1546 36.375 43.1572H36.376C38.1219 43.1571 39.8286 42.6396 41.2803 41.6699C42.7321 40.7002 43.8639 39.3216 44.5322 37.709C45.2005 36.0961 45.3758 34.3206 45.0352 32.6084C44.6944 30.8963 43.8528 29.3242 42.6182 28.0898C41.3834 26.8554 39.8103 26.0144 38.0977 25.6738ZM36.376 27.999C38.0556 27.9992 39.6668 28.6662 40.8545 29.8535C42.0422 31.0409 42.709 32.6519 42.709 34.3311C42.7089 35.5832 42.3375 36.8075 41.6416 37.8486C40.9457 38.8898 39.9561 39.7015 38.7988 40.1807C37.6416 40.6598 36.3681 40.7853 35.1396 40.541C33.9111 40.2967 32.7822 39.6931 31.8965 38.8076C31.011 37.9222 30.4075 36.7943 30.1631 35.5664C29.9187 34.3383 30.0451 33.0651 30.5244 31.9082C31.0037 30.7513 31.815 29.7621 32.8564 29.0664C33.898 28.3707 35.1233 27.999 36.376 27.999Z"/>
</clipPath><linearGradient id="paint0_linear_35726_6618" x1="29.1966" y1="32.278" x2="51.0193" y2="38.2211" gradientUnits="userSpaceOnUse">
<stop stop-color="white" stop-opacity="0.05"/>
<stop offset="1" stop-color="white"/>
</linearGradient>
</defs>
</svg>
